<?xml version="1.0" standalone="no"?>
<!DOCTYPE svg PUBLIC "-//W3C//DTD SVG 20010904//EN"
 "http://www.w3.org/TR/2001/REC-SVG-20010904/DTD/svg10.dtd">
<svg version="1.0" xmlns="http://www.w3.org/2000/svg"
 width="1000.000000pt" height="1000.000000pt" viewBox="0 0 1000.000000 1000.000000"
 preserveAspectRatio="xMidYMid meet">
<metadata>
Created by potrace 1.14, written by Peter Selinger 2001-2017
</metadata>
<g transform="translate(0.000000,1000.000000) scale(0.100000,-0.100000)"
fill="#000000" stroke="none">
<path d="M2998 9935 c-3 -3 -33 -5 -216 -20 -30 -3 -88 -14 -130 -24 -43 -11
-97 -25 -122 -31 -25 -7 -52 -14 -60 -17 -8 -4 -18 -5 -22 -5 -5 1 -8 -2 -8
-8 0 -5 -6 -7 -14 -4 -8 3 -17 1 -21 -5 -3 -6 -15 -11 -26 -11 -10 0 -27 -4
-37 -10 -9 -5 -35 -17 -57 -26 -22 -10 -57 -28 -77 -41 -21 -13 -38 -21 -38
-17 0 3 -18 -5 -40 -17 -21 -12 -37 -26 -34 -30 3 -5 -1 -6 -8 -4 -17 7 -210
-147 -295 -234 -58 -59 -162 -203 -211 -292 -36 -66 -40 -73 -75 -149 -97
-207 -147 -355 -202 -590 -2 -8 -11 -45 -19 -82 -30 -123 -105 -546 -120 -668
-11 -94 -19 -141 -36 -210 -10 -41 -26 -123 -35 -182 -9 -59 -30 -158 -47
-220 -16 -62 -31 -117 -32 -123 -13 -53 -121 -358 -133 -378 -4 -7 -17 -39
-29 -72 -73 -204 -153 -403 -215 -536 -39 -85 -72 -162 -72 -171 -1 -9 -5 -14
-10 -11 -5 3 -11 -4 -14 -16 -3 -12 -9 -21 -14 -21 -5 0 -9 -4 -9 -9 0 -4 -43
-84 -96 -177 -52 -93 -117 -209 -142 -259 -26 -49 -51 -93 -57 -97 -5 -4 -6
-8 -2 -8 5 0 1 -7 -7 -16 -9 -8 -16 -21 -16 -29 0 -7 -7 -15 -15 -19 -8 -3
-15 -14 -15 -24 0 -11 -9 -31 -20 -45 -11 -14 -20 -30 -20 -36 0 -6 -4 -11 -8
-11 -13 0 -43 -81 -35 -93 3 -6 1 -7 -4 -4 -7 4 -26 -23 -47 -64 l-36 -71 0
-2354 0 -2354 3070 0 3070 0 26 58 c57 124 82 172 157 302 43 74 82 142 87
150 6 8 25 44 45 80 19 36 64 112 100 170 36 58 68 112 72 120 3 8 13 23 21
32 14 16 25 7 151 -120 124 -126 176 -181 311 -327 48 -52 157 -183 297 -357
l86 -107 613 -1 613 0 -21 47 c-11 27 -29 66 -39 89 -10 22 -27 63 -38 91 -11
28 -28 70 -39 94 -10 24 -40 102 -66 174 -54 148 -105 283 -116 305 -4 8 -4
25 1 37 7 19 12 21 31 14 13 -5 22 -14 20 -21 -1 -6 3 -8 9 -5 11 8 45 -6 92
-38 15 -10 27 -15 27 -12 0 3 12 -2 28 -13 15 -10 52 -31 82 -47 150 -77 200
-104 261 -143 36 -23 69 -42 73 -42 4 0 14 -7 23 -16 9 -8 22 -13 29 -10 7 3
16 -4 20 -16 4 -14 9 -17 14 -8 5 8 9 7 14 -5 3 -9 10 -13 16 -10 5 3 10 1 10
-5 0 -6 5 -8 10 -5 6 3 10 -1 10 -9 0 -10 9 -16 24 -16 13 0 27 -7 30 -16 3
-8 10 -12 16 -9 5 3 10 -1 10 -9 0 -9 3 -15 8 -14 15 4 52 -14 47 -23 -4 -5 3
-9 15 -9 11 0 23 -7 27 -16 3 -8 12 -13 19 -10 8 3 14 -1 14 -9 0 -7 5 -17 12
-21 7 -5 8 -3 3 6 -5 8 -3 11 6 8 8 -3 13 -11 11 -17 -1 -6 7 -11 18 -11 11 0
20 -5 20 -12 0 -6 3 -9 6 -5 4 3 13 -1 21 -9 8 -8 19 -12 24 -8 5 3 8 0 7 -8
-2 -7 3 -12 10 -10 6 1 12 -2 12 -7 0 -5 22 -19 50 -32 28 -13 47 -27 43 -33
-3 -6 -2 -8 2 -3 5 4 17 -1 28 -10 15 -13 18 -14 13 -3 -4 8 1 5 12 -7 11 -12
22 -19 26 -16 3 4 6 1 6 -5 0 -6 9 -14 20 -17 11 -4 34 -18 50 -32 17 -13 30
-21 30 -16 0 4 4 4 8 -2 18 -25 73 -45 126 -45 l56 0 0 585 -1 584 -32 23
c-46 33 -211 183 -362 329 -71 69 -155 147 -185 173 -30 26 -71 61 -90 77
-163 140 -473 444 -595 584 -80 92 -485 495 -498 495 -4 0 -6 4 -3 9 3 5 -1
12 -10 15 -8 3 -12 10 -9 16 3 5 -1 10 -9 10 -8 0 -18 5 -22 12 -5 7 -2 8 7 3
8 -4 -8 15 -36 43 -27 28 -53 48 -58 45 -4 -2 -6 1 -5 9 2 7 -3 12 -10 10 -8
-1 -11 2 -8 6 7 12 -28 44 -39 35 -4 -5 -5 -3 -2 3 8 14 -129 140 -150 138 -8
-1 -12 0 -9 3 9 9 -14 43 -29 43 -7 0 -17 9 -20 20 -4 11 -11 18 -16 14 -6 -3
-5 -12 3 -22 12 -15 11 -16 -4 -3 -10 7 -15 18 -12 23 3 5 -4 19 -16 30 -17
16 -24 18 -30 8 -5 -9 -9 -9 -14 -1 -4 6 -2 11 3 11 6 0 11 5 11 11 0 6 -10 8
-22 5 -13 -3 -17 -3 -10 0 18 8 15 27 -4 20 -8 -3 -13 -2 -10 2 7 12 -70 86
-82 78 -11 -7 -55 38 -45 47 3 4 2 7 -4 7 -5 0 -21 9 -34 20 -133 113 -220
196 -212 204 4 3 1 6 -5 6 -7 0 -12 5 -12 11 0 5 4 7 10 4 5 -3 3 7 -5 22 -17
33 -56 123 -74 173 -7 19 -24 59 -37 88 -13 29 -24 54 -24 57 0 2 -18 43 -41
92 -22 48 -48 104 -56 123 -65 148 -109 212 -240 346 -144 148 -249 193 -556
238 -49 8 -252 8 -340 2 -210 -17 -392 -86 -468 -178 -24 -29 -47 -54 -51 -56
-5 -2 -8 -9 -8 -17 0 -7 -6 -18 -14 -24 -12 -10 -16 -5 -26 24 -6 19 -15 33
-20 30 -4 -3 -6 4 -3 14 6 22 -37 71 -62 71 -8 0 -15 5 -15 10 0 6 -7 10 -15
10 -8 0 -15 7 -15 15 0 8 -4 15 -8 15 -5 0 -9 6 -10 13 0 12 -4 26 -17 80 -5
20 -23 37 -60 58 -61 34 -79 58 -95 122 -11 42 -15 45 -65 63 -81 27 -107 57
-143 167 -18 52 -57 147 -87 211 -30 64 -55 119 -55 122 0 4 -88 158 -113 198
-7 11 -23 32 -36 48 -26 31 -40 75 -19 62 8 -5 9 -2 5 10 -4 10 -3 15 3 11 6
-3 10 2 10 12 0 15 2 16 10 3 8 -13 10 -12 10 3 0 10 7 20 15 23 8 4 12 10 9
15 -3 5 -2 9 3 9 4 0 37 37 73 81 87 109 107 128 176 169 32 19 104 80 161
136 57 55 105 99 107 97 2 -2 6 8 10 22 4 14 13 25 22 25 9 0 12 5 8 13 -4 6
-3 8 2 4 11 -10 14 -57 3 -57 -14 0 -19 18 -7 23 9 4 10 6 1 6 -16 1 -26 -16
-14 -24 6 -3 8 -13 5 -23 -5 -14 -4 -15 5 -2 8 11 9 5 5 -25 -12 -81 -55 -182
-131 -305 l-34 -55 32 35 c69 78 215 319 261 429 66 162 140 440 153 571 2 19
4 35 5 35 3 0 8 44 15 130 23 289 28 606 10 740 -17 122 -26 178 -31 186 -2 3
-6 21 -9 40 -14 80 -86 314 -113 364 -18 36 -53 120 -54 130 0 10 -19 45 -77
145 -49 85 -53 91 -98 151 -55 73 -159 169 -308 283 -202 155 -291 209 -422
257 -32 12 -62 25 -68 29 -24 19 -361 145 -415 155 -12 2 -46 11 -74 19 -61
18 -228 55 -275 62 -18 2 -38 7 -43 10 -10 7 -483 15 -490 9z m112 -35 c0 -5
-5 -10 -11 -10 -5 0 -7 5 -4 10 3 6 8 10 11 10 2 0 4 -4 4 -10z m-220 -4 c0
-3 -4 -8 -10 -11 -5 -3 -10 -1 -10 4 0 6 5 11 10 11 6 0 10 -2 10 -4z m-596
-174 c3 -5 -1 -9 -9 -9 -8 0 -12 4 -9 9 3 4 7 8 9 8 2 0 6 -4 9 -8z m2893
-3087 c0 -8 -4 -12 -9 -9 -5 3 -6 10 -3 15 9 13 12 11 12 -6z m-4223 -113 c3
-5 -1 -9 -9 -9 -8 0 -12 4 -9 9 3 4 7 8 9 8 2 0 6 -4 9 -8z m3681 -813 c-4 -5
-12 -9 -18 -8 -9 0 -8 2 1 6 6 2 9 10 6 15 -4 7 -2 8 5 4 6 -4 9 -12 6 -17z
m-1 -27 c3 -5 -1 -9 -9 -9 -8 0 -12 4 -9 9 3 4 7 8 9 8 2 0 6 -4 9 -8z m26
-22 c0 -5 -5 -10 -11 -10 -5 0 -7 5 -4 10 3 6 8 10 11 10 2 0 4 -4 4 -10z m31
-41 c8 -15 8 -19 0 -15 -6 4 -11 1 -11 -8 0 -8 -4 -18 -10 -21 -7 -4 -7 3 0
20 14 36 13 38 -10 32 -11 -3 -18 -1 -14 4 9 16 33 10 45 -12z m21 -47 c-8 -2
-4 -11 10 -23 13 -10 19 -18 15 -19 -4 0 -3 -10 3 -22 10 -21 9 -21 -9 2 -11
14 -18 27 -15 29 3 3 -6 11 -18 18 -13 7 -17 12 -10 13 7 0 10 4 7 10 -4 6 1
7 11 3 11 -4 13 -8 6 -11z m-18 -30 c3 -5 -1 -9 -9 -9 -8 0 -12 4 -9 9 3 4 7
8 9 8 2 0 6 -4 9 -8z m36 -58 c0 -8 -19 -13 -24 -6 -3 5 1 9 9 9 8 0 15 -2 15
-3z m31 -18 c5 3 9 1 9 -5 0 -5 -9 -9 -19 -8 -12 1 -17 6 -13 16 4 10 7 11 10
3 2 -7 8 -10 13 -6z m15 -41 c-3 -8 2 -19 12 -24 16 -10 16 -10 0 -11 -9 0
-18 6 -21 13 -4 13 2 37 10 37 3 0 3 -7 -1 -15z m34 -65 c6 -11 9 -20 8 -20
-2 0 -11 9 -21 20 -9 11 -13 20 -7 20 5 0 14 -9 20 -20z m-10 -31 c0 -5 4 -8
9 -5 11 7 9 -21 -2 -29 -4 -3 -5 -2 -2 2 3 3 -2 15 -12 25 -9 11 -11 18 -5 18
7 0 12 -5 12 -11z m27 -61 c-3 -8 -6 -5 -6 6 -1 11 2 17 5 13 3 -3 4 -12 1
-19z m13 -24 c0 -8 -19 -13 -24 -6 -3 5 1 9 9 9 8 0 15 -2 15 -3z m980 -378
c0 -3 -4 -8 -10 -11 -5 -3 -10 -1 -10 4 0 6 5 11 10 11 6 0 10 -2 10 -4z
m1820 -1406 c0 -5 -2 -10 -4 -10 -3 0 -8 5 -11 10 -3 6 -1 10 4 10 6 0 11 -4
11 -10z m40 -46 c0 -3 -7 -1 -15 6 -8 7 -15 17 -15 22 0 5 7 3 15 -6 8 -8 15
-18 15 -22z m245 -222 c-3 -3 -11 0 -18 7 -9 10 -8 11 6 5 10 -3 15 -9 12 -12z
m49 -41 c-5 -6 -34 20 -34 30 0 5 8 1 18 -8 10 -10 17 -20 16 -22z m1896
-1947 c0 -8 -19 -13 -24 -6 -3 5 1 9 9 9 8 0 15 -2 15 -3z m-2910 -444 c0 -5
-2 -10 -4 -10 -3 0 -8 5 -11 10 -3 6 -1 10 4 10 6 0 11 -4 11 -10z m320 -374
c0 -3 -4 -8 -10 -11 -5 -3 -10 -1 -10 4 0 6 5 11 10 11 6 0 10 -2 10 -4z m135
-155 c3 -5 2 -12 -3 -15 -5 -3 -9 1 -9 9 0 17 3 19 12 6z m45 -51 c0 -5 -2
-10 -4 -10 -3 0 -8 5 -11 10 -3 6 -1 10 4 10 6 0 11 -4 11 -10z"/>
<path d="M4550 5961 c0 -6 4 -13 10 -16 6 -3 7 1 4 9 -7 18 -14 21 -14 7z"/>
<path d="M7590 3516 c0 -2 7 -9 15 -16 9 -7 15 -8 15 -2 0 5 -7 12 -15 16 -8
3 -15 4 -15 2z"/>
</g>
</svg>
